name Walk6.mot
datacolumns 19
datarows 27
range 2.57000000 2.70000000
endheader

                time	   L_ground_force_vx	   L_ground_force_vy	   L_ground_force_vz	   L_ground_force_px	   L_ground_force_py	   L_ground_force_pz	   R_ground_force_vx	   R_ground_force_vy	   R_ground_force_vz	   R_ground_force_px	   R_ground_force_py	   R_ground_force_pz	   L_ground_torque_x	   L_ground_torque_y	   L_ground_torque_z	   R_ground_torque_x	   R_ground_torque_y	   R_ground_torque_z	
          2.57000000	         -0.00000000	          0.00000000	          0.00000000	         -0.00000000	          0.00000000	         -0.00000000	          8.44206495	         34.03289601	         11.14087869	          0.38807865	          0.00000000	          0.08914452	          0.00000000	          0.00000000	          0.00000000	          0.00000000	         -1.87178487	          0.00000000	
          2.57500000	         -0.00000000	          0.00000000	          0.00000000	         -0.00000000	          0.00000000	         -0.00000000	          5.07724406	         19.34788436	          8.30569840	          0.31803451	          0.00000000	          0.07300747	          0.00000000	          0.00000000	          0.00000000	          0.00000000	         -1.14689652	          0.00000000	
          2.58000000	         -0.00000000	         -0.00000000	          0.00000000	         -0.00000000	          0.00000000	         -0.00000000	          2.51781675	          8.40390164	          5.83148088	          0.24809926	          0.00000000	          0.05691521	          0.00000000	          0.00000000	          0.00000000	          0.00000000	         -0.59137211	          0.00000000	
          2.58500000	         -0.00000000	         -0.00000000	          0.00000000	         -0.00000000	          0.00000000	         -0.00000000	          0.67737673	          0.72109052	          3.78361348	          0.18362949	          0.00000000	          0.04209425	          0.00000000	          0.00000000	          0.00000000	          0.00000000	         -0.18835468	          0.00000000	
          2.59000000	         -0.00000000	         -0.00000000	          0.00000000	         -0.00000000	          0.00000000	         -0.00000000	         -0.55643411	         -4.26277697	          2.17111772	          0.12776340	          0.00000000	          0.02926070	          0.00000000	          0.00000000	          0.00000000	          0.00000000	          0.08498916	          0.00000000	
          2.59500000	         -0.00000000	         -0.00000000	          0.00000000	         -0.00000000	          0.00000000	         -0.00000000	         -1.30364589	         -7.12170052	          0.96534626	          0.08183302	          0.00000000	          0.01871663	          0.00000000	         -0.00000000	          0.00000000	          0.00000000	          0.25355766	          0.00000000	
          2.60000000	         -0.00000000	         -0.00000000	          0.00000000	          0.00000000	          0.00000000	         -0.00000000	         -1.67971570	         -8.39183241	          0.11576116	          0.04590676	          0.00000000	          0.01047467	          0.00000000	         -0.00000000	          0.00000000	          0.00000000	          0.34160403	          0.00000000	
          2.60500000	         -0.00000000	         -0.00000000	          0.00000000	          0.00000000	          0.00000000	         -0.00000000	         -1.78803678	         -8.54265091	         -0.43821661	          0.01923727	          0.00000000	          0.00436083	          0.00000000	         -0.00000000	          0.00000000	          0.00000000	          0.37104971	          0.00000000	
          2.61000000	         -0.00000000	         -0.00000000	          0.00000000	          0.00000000	          0.00000000	          0.00000000	         -1.71608891	         -7.96374750	         -0.75881419	          0.00061321	          0.00000000	          0.00009526	          0.00000000	         -0.00000000	          0.00000000	          0.00000000	          0.36058711	          0.00000000	
          2.61500000	         -0.00000000	         -0.00000000	          0.00000000	          0.00000000	          0.00000000	          0.00000000	         -1.53422824	         -6.96267182	         -0.90439417	         -0.01137854	          0.00000000	         -0.00264770	          0.00000000	         -0.00000000	          0.00000000	          0.00000000	          0.32535956	          0.00000000	
          2.62000000	         -0.00000000	         -0.00000000	          0.00000000	          0.00000000	          0.00000000	          0.00000000	         -1.29626562	         -5.77003823	         -0.92622516	         -0.01816871	          0.00000000	         -0.00419731	          0.00000000	         -0.00000000	          0.00000000	          0.00000000	          0.27703682	          0.00000000	
          2.62500000	         -0.00000000	         -0.00000000	          0.00000000	          0.00000000	          0.00000000	          0.00000000	         -1.04114586	         -4.54888515	         -0.86697173	         -0.02108619	          0.00000000	         -0.00485909	          0.00000000	         -0.00000000	          0.00000000	          0.00000000	          0.22413811	          0.00000000	
          2.63000000	         -0.00000000	         -0.00000000	         -0.00000000	          0.00000000	          0.00000000	          0.00000000	         -0.79520045	         -3.40602152	         -0.76040668	         -0.02128945	          0.00000000	         -0.00489918	          0.00000000	         -0.00000000	          0.00000000	          0.00000000	          0.17248858	          0.00000000	
          2.63500000	          0.00000000	         -0.00000000	         -0.00000000	          0.00000000	          0.00000000	          0.00000000	         -0.57458969	         -2.40375010	         -0.63192960	         -0.01973606	          0.00000000	         -0.00453742	          0.00000000	         -0.00000000	          0.00000000	          0.00000000	          0.12572498	          0.00000000	
          2.64000000	          0.00000000	         -0.00000000	         -0.00000000	          0.00000000	          0.00000000	          0.00000000	         -0.38767318	         -1.57090529	         -0.49956175	         -0.01717902	          0.00000000	         -0.00394658	          0.00000000	         -0.00000000	          0.00000000	          0.00000000	          0.08579306	          0.00000000	
          2.64500000	          0.00000000	         -0.00000000	         -0.00000000	          0.00000000	          0.00000000	          0.00000000	         -0.23714698	         -0.91257842	         -0.37516751	         -0.01418058	          0.00000000	         -0.00325555	          0.00000000	         -0.00000000	          0.00000000	          0.00000000	          0.05340030	          0.00000000	
          2.65000000	          0.00000000	          0.00000000	         -0.00000000	          0.00000000	          0.00000000	          0.00000000	         -0.12186199	         -0.41823224	         -0.26572469	         -0.01113623	          0.00000000	         -0.00255494	          0.00000000	         -0.00000000	          0.00000000	          0.00000000	          0.02840413	          0.00000000	
          2.65500000	          0.00000000	          0.00000000	         -0.00000000	          0.00000000	          0.00000000	          0.00000000	         -0.03829415	         -0.06814050	         -0.17452551	         -0.00830321	          0.00000000	         -0.00190358	          0.00000000	         -0.00000000	          0.00000000	          0.00000000	          0.01012815	          0.00000000	
          2.66000000	          0.00000000	          0.00000000	         -0.00000000	          0.00000000	          0.00000000	          0.00000000	          0.01832489	          0.16175564	         -0.10223839	         -0.00582976	          0.00000000	         -0.00133533	          0.00000000	         -0.00000000	          0.00000000	          0.00000000	         -0.00239290	          0.00000000	
          2.66500000	          0.00000000	          0.00000000	         -0.00000000	          0.00000000	          0.00000000	          0.00000000	          0.05318431	          0.29639067	         -0.04779624	         -0.00378252	          0.00000000	         -0.00086532	          0.00000000	          0.00000000	          0.00000000	          0.00000000	         -0.01023315	          0.00000000	
          2.67000000	          0.00000000	          0.00000000	         -0.00000000	         -0.00000000	          0.00000000	          0.00000000	          0.07133275	          0.35928859	         -0.00910344	         -0.00217052	          0.00000000	         -0.00049547	          0.00000000	          0.00000000	          0.00000000	          0.00000000	         -0.01445164	          0.00000000	
          2.67500000	          0.00000000	          0.00000000	         -0.00000000	         -0.00000000	          0.00000000	          0.00000000	          0.07732943	          0.37120842	          0.01642948	         -0.00096511	          0.00000000	         -0.00021910	          0.00000000	          0.00000000	          0.00000000	          0.00000000	         -0.01601392	          0.00000000	
          2.68000000	          0.00000000	          0.00000000	         -0.00000000	         -0.00000000	          0.00000000	         -0.00000000	          0.07505916	          0.34949428	          0.03150387	         -0.00011577	          0.00000000	         -0.00002455	          0.00000000	          0.00000000	          0.00000000	          0.00000000	         -0.01574928	          0.00000000	
          2.68500000	          0.00000000	          0.00000000	         -0.00000000	         -0.00000000	          0.00000000	         -0.00000000	          0.06766701	          0.30792865	          0.03867921	          0.00043804	          0.00000000	          0.00010216	          0.00000000	          0.00000000	          0.00000000	          0.00000000	         -0.01433399	          0.00000000	
          2.69000000	          0.00000000	          0.00000000	         -0.00000000	         -0.00000000	          0.00000000	         -0.00000000	          0.05757492	          0.25691998	          0.04022156	          0.00075855	          0.00000000	          0.00017533	          0.00000000	          0.00000000	          0.00000000	          0.00000000	         -0.01229274	          0.00000000	
          2.69500000	          0.00000000	          0.00000000	         -0.00000000	         -0.00000000	          0.00000000	         -0.00000000	          0.04654958	          0.20388985	          0.03802960	          0.00090410	          0.00000000	          0.00020839	          0.00000000	          0.00000000	          0.00000000	          0.00000000	         -0.01001153	          0.00000000	
          2.70000000	          0.00000000	          0.00000000	          0.00000000	         -0.00000000	          0.00000000	         -0.00000000	          0.03579774	          0.15375743	          0.03361625	          0.00092593	          0.00000000	          0.00021311	          0.00000000	          0.00000000	          0.00000000	          0.00000000	         -0.00775684	          0.00000000	
